<svg width="132" height="132" viewBox="0 0 132 132" fill="none" xmlns="http://www.w3.org/2000/svg">
<circle cx="66" cy="66" r="66" fill="white"/>
<path d="M44.2084 38.9998L83.7501 38.9998C88.7895 38.9998 92.8751 43.0292 92.8751 47.9998V74.9997C92.8751 79.9704 88.7895 83.9997 83.7501 83.9997H69.8016L58.5259 95.121C57.9754 95.664 57.215 95.9997 56.3751 95.9997C54.6952 95.9997 53.3334 94.6566 53.3334 92.9997V83.9997H44.2084C39.1688 83.9997 35.0834 79.9704 35.0834 74.9997V47.9997C35.0834 43.0292 39.1688 38.9998 44.2084 38.9998ZM83.7501 41.9998L44.2084 41.9998C40.8487 41.9998 38.1251 44.6861 38.1251 47.9998L38.1251 74.9997C38.1251 78.3135 40.8487 80.9997 44.2084 80.9997H56.3751V92.9997L68.5418 80.9997H83.7501C87.1096 80.9997 89.8334 78.3135 89.8334 74.9997V47.9998C89.8334 44.6861 87.1096 41.9998 83.7501 41.9998ZM62.4584 47.9997H65.5001V62.9997H62.4584V47.9997ZM62.4584 68.9997H65.5001V74.9997H62.4584V68.9997Z" fill="black"/>
<rect x="54" y="42" width="17" height="39" fill="white"/>
<rect width="32" height="32" transform="translate(47 46)" fill="white"/>
<path d="M54.6117 60.721C52.8033 60.721 51.3333 62.1909 51.3333 63.9991C51.3333 65.8074 52.8033 67.2773 54.6117 67.2773C56.4083 67.2773 57.8783 65.8074 57.8783 63.9991C57.8783 62.1909 56.4083 60.721 54.6117 60.721Z" fill="black"/>
<path d="M63 67.2773C64.8106 67.2773 66.2783 65.8096 66.2783 63.9991C66.2783 62.1887 64.8106 60.721 63 60.721C61.1894 60.721 59.7217 62.1887 59.7217 63.9991C59.7217 65.8096 61.1894 67.2773 63 67.2773Z" fill="black"/>
<path d="M71.3883 60.721C69.5917 60.721 68.1217 62.1909 68.1217 63.9991C68.1217 65.8074 69.5917 67.2773 71.3883 67.2773C73.1967 67.2773 74.6667 65.8074 74.6667 63.9991C74.6667 62.1909 73.1967 60.721 71.3883 60.721Z" fill="black"/>
</svg>
